<?xml version="1.0" encoding="utf-8"?>
<!-- Generator: Adobe Illustrator 19.2.1, SVG Export Plug-In . SVG Version: 6.00 Build 0)  -->
<svg version="1.1" id="Layer_1" xmlns="http://www.w3.org/2000/svg" xmlns:xlink="http://www.w3.org/1999/xlink" x="0px" y="0px"
	 viewBox="0 0 32 32" style="enable-background:new 0 0 32 32;" xml:space="preserve">
<style type="text/css">
	.st0{enable-background:new    ;}
	.st1{fill:#8D1012;}
	.st2{fill:#8E191C;}
</style>
<g class="st0">
	<path class="st1" d="M99.8,194.7h3.2v16.8h9.2v2.8H99.8V194.7z"/>
	<path class="st1" d="M123.8,214.7c-1.2,0-2.2-0.3-3.2-0.9c-0.9-0.6-1.7-1.4-2.2-2.4c-0.5-1-0.8-2.3-0.8-3.6c0-1.2,0.3-2.4,0.8-3.4
		s1.3-1.9,2.3-2.5c1-0.6,2.1-1,3.3-1c1,0,1.8,0.2,2.6,0.6s1.4,0.9,1.8,1.6l0.1-1.8h2.9v13h-2.9l-0.1-1.8
		C127.4,213.9,125.9,214.7,123.8,214.7z M124.6,212c1.2,0,2.1-0.4,2.9-1.2s1.1-1.8,1.1-3.1s-0.4-2.3-1.1-3.1
		c-0.7-0.8-1.7-1.2-2.8-1.2c-1.2,0-2.1,0.4-2.8,1.2s-1.1,1.8-1.1,3.1s0.4,2.3,1.1,3.1C122.5,211.6,123.4,212,124.6,212z"/>
	<path class="st1" d="M138.5,201.2h2.8l0,1.7c0.4-0.7,0.9-1.2,1.6-1.5c0.7-0.4,1.5-0.5,2.5-0.5c1.6,0,2.8,0.5,3.6,1.4
		c0.8,1,1.3,2.3,1.3,4.1v7.9h-3v-7.4c0-1.2-0.2-2-0.7-2.6c-0.4-0.6-1.1-0.9-2-0.9c-1,0-1.8,0.3-2.3,1c-0.6,0.7-0.8,1.6-0.8,2.7v7.1
		h-3V201.2z"/>
	<path class="st1" d="M163.7,214.6c-1.4,0-2.7-0.3-3.7-0.8c-1.1-0.5-1.9-1.3-2.5-2.3s-0.9-2.2-0.9-3.6c0-1.3,0.3-2.5,0.9-3.5
		c0.6-1,1.4-1.9,2.5-2.5c1.1-0.6,2.3-0.9,3.8-0.9c0.7,0,1.4,0.1,2.2,0.3s1.3,0.4,1.9,0.7l-0.4,2.5c-0.5-0.3-1.1-0.5-1.7-0.6
		c-0.6-0.1-1.2-0.2-1.8-0.2c-1.3,0-2.4,0.4-3.1,1.1c-0.8,0.8-1.2,1.8-1.2,3.1c0,1.3,0.4,2.4,1.2,3.1c0.8,0.7,1.9,1.1,3.3,1.1
		c1.1,0,2.3-0.3,3.6-0.8l0.3,2.5c-0.6,0.3-1.2,0.6-1.9,0.7C165.2,214.5,164.5,214.6,163.7,214.6z"/>
	<path class="st1" d="M180.6,214.7c-1.5,0-2.8-0.3-3.9-0.8c-1.1-0.5-2-1.3-2.6-2.4s-0.9-2.3-0.9-3.7c0-1.3,0.3-2.5,0.8-3.6
		c0.5-1,1.3-1.9,2.3-2.5c1-0.6,2.1-0.9,3.5-0.9c1.2,0,2.2,0.3,3.2,0.8c0.9,0.5,1.6,1.3,2.2,2.2c0.5,1,0.8,2.1,0.8,3.4
		c0,0.7,0,1.1-0.1,1.5h-9.6c0.2,1.1,0.7,2,1.5,2.6c0.8,0.6,1.9,0.9,3.2,0.9c1.5,0,3-0.3,4.4-1l0.3,2.3c-0.6,0.3-1.4,0.6-2.3,0.8
		C182.4,214.6,181.5,214.7,180.6,214.7z M183,206.5c-0.1-1.1-0.4-1.9-1-2.5c-0.6-0.6-1.4-0.9-2.3-0.9c-1,0-1.8,0.3-2.4,0.9
		c-0.6,0.6-1,1.4-1.1,2.5H183z"/>
</g>
<g class="st0">
	<path class="st1" d="M201.6,194.7h2.4l5,17.2l5-16.9h2.4l5,16.8l5-17.1h2.3l-6,19.6h-2.5l-5-16.7l-5,16.7h-2.6L201.6,194.7z"/>
	<path class="st1" d="M235.8,197.9c-0.4,0-0.8-0.1-1.1-0.4c-0.3-0.3-0.4-0.7-0.4-1.1s0.1-0.8,0.4-1.1c0.3-0.3,0.6-0.4,1.1-0.4
		c0.4,0,0.8,0.1,1.1,0.4c0.3,0.3,0.4,0.7,0.4,1.1s-0.1,0.8-0.4,1.1C236.6,197.8,236.3,197.9,235.8,197.9z M234.7,201.4h2.2v12.9
		h-2.2V201.4z"/>
	<path class="st1" d="M244.6,193.4h2.2v20.9h-2.2V193.4z"/>
	<path class="st1" d="M257.5,214.7c-0.8,0-1.6-0.1-2.4-0.3c-0.8-0.2-1.4-0.5-1.9-0.9l0.3-1.9c0.5,0.4,1.2,0.7,1.9,1
		c0.7,0.2,1.4,0.4,2.1,0.4c1,0,1.7-0.2,2.2-0.5c0.5-0.3,0.8-0.8,0.8-1.4c0-0.4-0.1-0.7-0.3-1c-0.2-0.2-0.5-0.5-0.9-0.7
		c-0.4-0.2-1.1-0.4-1.9-0.7c-1.4-0.4-2.5-0.9-3.1-1.5c-0.6-0.6-0.9-1.4-0.9-2.3c0-1.2,0.4-2.1,1.3-2.8c0.9-0.7,2.1-1,3.5-1
		c0.7,0,1.4,0.1,2.1,0.3c0.7,0.2,1.3,0.4,1.8,0.7l-0.4,1.9c-1.1-0.7-2.3-1.1-3.6-1.1c-0.9,0-1.5,0.2-2,0.5c-0.5,0.3-0.7,0.7-0.7,1.3
		c0,0.5,0.2,1,0.6,1.3s1.1,0.6,2.2,0.9c1.6,0.5,2.8,1,3.5,1.6s1,1.4,1,2.5c0,1.2-0.5,2.1-1.4,2.8
		C260.4,214.3,259.1,214.7,257.5,214.7z"/>
	<path class="st1" d="M275.1,214.7c-1.2,0-2.4-0.3-3.4-0.9c-1-0.6-1.8-1.4-2.5-2.4c-0.6-1-0.9-2.2-0.9-3.6c0-1.2,0.3-2.4,0.9-3.4
		c0.6-1,1.4-1.9,2.4-2.5c1-0.6,2.2-1,3.5-1c1.2,0,2.4,0.3,3.4,0.9c1,0.6,1.8,1.4,2.5,2.4c0.6,1,0.9,2.2,0.9,3.6
		c0,1.2-0.3,2.4-0.9,3.4c-0.6,1-1.4,1.9-2.4,2.5C277.6,214.4,276.4,214.7,275.1,214.7z M275.1,212.7c1.3,0,2.4-0.5,3.2-1.4
		c0.8-0.9,1.3-2.1,1.3-3.5c0-1.4-0.4-2.6-1.3-3.5s-1.9-1.4-3.2-1.4c-1.3,0-2.4,0.5-3.3,1.4s-1.3,2.1-1.3,3.5c0,1.4,0.4,2.6,1.3,3.5
		C272.7,212.3,273.8,212.7,275.1,212.7z"/>
	<path class="st1" d="M288.6,201.4h2.1l0,2.2c0.4-0.8,0.9-1.5,1.7-2c0.8-0.5,1.6-0.7,2.6-0.7c1.5,0,2.7,0.5,3.5,1.4
		c0.8,1,1.2,2.3,1.2,4.1v7.8h-2.2v-7.4c0-1.3-0.3-2.3-0.8-3c-0.5-0.7-1.3-1-2.3-1c-1.2,0-2.1,0.4-2.7,1.1c-0.7,0.8-1,1.8-1,3.1v7.1
		h-2.2V201.4z"/>
</g>
<path class="st2" d="M80.3,210.9H62.8v-12.5h17.4v-3.2H62.8v-15.4H47.5c-0.1,0-0.2-0.1-0.2-0.2l0,0v-17.3h-3.1v17.4H31.9
	c-0.1,0-0.2-0.1-0.2-0.2v-17.2h-3.1v20.5l0,0h15.6v15.6l0,0h15.6V214l0,0h20.6L80.3,210.9L80.3,210.9z M59.7,195.1
	c0,0.1-0.1,0.2-0.2,0.2H47.3v-12.2c0-0.1,0.1-0.2,0.2-0.2h12.2V195.1z"/>
<path class="st2" d="M30,28.4h-9.5v-6.8H30v-1.7h-9.5v-8.4h-8.3c-0.1,0-0.1-0.1-0.1-0.1l0,0V1.9h-1.7v9.5H3.7
	c-0.1,0-0.1-0.1-0.1-0.1V1.9H1.9v11.2l0,0h8.5v8.5l0,0h8.5v8.5l0,0h11.2L30,28.4L30,28.4z M18.8,19.8c0,0.1-0.1,0.1-0.1,0.1h-6.6
	v-6.6c0-0.1,0.1-0.1,0.1-0.1h6.6V19.8z"/>
</svg>
