<svg id="Layer_1" data-name="Layer 1" xmlns="http://www.w3.org/2000/svg" viewBox="0 0 352.3 59.54"><defs><style>.cls-1{fill:#8e191c;stroke:#8f1a1d;stroke-miterlimit:10;stroke-width:0.58px;}.cls-2{font-size:25.8px;fill:#8d1012;font-family:Objektiv Mk1;letter-spacing:3px;}</style></defs><title>WILL</title><path class="cls-1" d="M62.5,41.71V39a0.23,0.23,0,0,0-.23-0.23H40.57a0.23,0.23,0,0,1-.23-0.23V23.48a0.23,0.23,0,0,0-.23-0.23H25A0.23,0.23,0,0,1,24.78,23V1.82a0.23,0.23,0,0,0-.23-0.23H21.89a0.23,0.23,0,0,0-.23.23V23a0.23,0.23,0,0,1-.23.23h-12A0.23,0.23,0,0,1,9.21,23V1.82A0.23,0.23,0,0,0,9,1.59H6.32a0.23,0.23,0,0,0-.23.23V26.14a0.23,0.23,0,0,0,.23.23H21.44a0.23,0.23,0,0,1,.23.23V41.71a0.23,0.23,0,0,0,.23.23H37a0.23,0.23,0,0,1,.23.23V57.27a0.23,0.23,0,0,0,.23.23H62.27a0.23,0.23,0,0,0,.23-0.23V54.61a0.23,0.23,0,0,0-.23-0.23H40.57a0.23,0.23,0,0,1-.23-0.23v-12a0.23,0.23,0,0,1,.23-0.23H62.27A0.23,0.23,0,0,0,62.5,41.71ZM37,38.82H25a0.23,0.23,0,0,1-.23-0.23v-12A0.23,0.23,0,0,1,25,26.37H37a0.23,0.23,0,0,1,.23.23v12A0.23,0.23,0,0,1,37,38.82Z"/><text class="cls-2" transform="translate(78.83 57.76)">Lance</text><text class="cls-2" transform="translate(180.32 57.76)">Wilson</text></svg>